#define 1584262268551_width 98
#define 1584262268551_height 28
static char 1584262268551_bits[] = {
  0x00, 0x00, 0x00, 0x00, 0x00, 0x00, 0x01, 0x00, 0x00, 0x00, 0x00, 0x00, 
  0x00, 0x00, 0x00, 0x00, 0x00, 0x00, 0x00, 0x01, 0x00, 0x00, 0x00, 0x00, 
  0x00, 0x00, 0x00, 0x00, 0x00, 0x00, 0x00, 0xC0, 0x07, 0x00, 0x00, 0x00, 
  0x00, 0x00, 0x00, 0x00, 0x00, 0x00, 0x00, 0x00, 0x80, 0x07, 0x00, 0x00, 
  0x00, 0x00, 0x00, 0x00, 0x00, 0x00, 0x00, 0x00, 0x00, 0x80, 0x0F, 0x00, 
  0x00, 0x00, 0x00, 0x00, 0x00, 0x00, 0x00, 0x00, 0x00, 0x00, 0x40, 0x03, 
  0x00, 0x00, 0x00, 0x00, 0x00, 0x00, 0x80, 0x3F, 0x00, 0x00, 0x00, 0x00, 
  0x02, 0x00, 0x00, 0x00, 0x00, 0x00, 0x00, 0xC0, 0xFF, 0x01, 0x0E, 0x00, 
  0x00, 0x00, 0x10, 0x0F, 0x00, 0x00, 0xF8, 0x01, 0xF0, 0xC0, 0x03, 0xDE, 
  0xFB, 0x00, 0x03, 0xFE, 0x8F, 0x0E, 0x0C, 0xBC, 0x03, 0x38, 0x00, 0x07, 
  0xFE, 0xFF, 0x81, 0x07, 0xFF, 0x87, 0x8F, 0x1C, 0x0E, 0x02, 0x1C, 0x0F, 
  0x0E, 0x3E, 0xFE, 0x83, 0x83, 0xEF, 0x0F, 0x4F, 0x0E, 0xCE, 0x03, 0x8C, 
  0x3F, 0x1C, 0x1E, 0xCC, 0x83, 0xC7, 0x87, 0x83, 0x4F, 0x0E, 0x9E, 0x01, 
  0xCE, 0x7F, 0x18, 0x1F, 0xCC, 0x83, 0xC7, 0x93, 0x0F, 0x4F, 0x1E, 0x3C, 
  0x00, 0x46, 0x78, 0x18, 0x1E, 0xC4, 0x81, 0xC7, 0xBB, 0x83, 0x2F, 0x0E, 
  0xFC, 0x00, 0x06, 0xFE, 0x38, 0x0F, 0xC4, 0x87, 0xC4, 0xBB, 0x07, 0x2E, 
  0x1E, 0xF3, 0x01, 0x82, 0xD7, 0x30, 0x1F, 0xC0, 0xC1, 0xC7, 0x93, 0x07, 
  0x2F, 0x9F, 0xE7, 0x01, 0xC2, 0xF1, 0x38, 0x1F, 0xCE, 0xC5, 0x87, 0xC3, 
  0x07, 0x0F, 0x1F, 0xE3, 0x03, 0xC6, 0xB1, 0x1E, 0x1F, 0xCE, 0x47, 0x86, 
  0xE7, 0x07, 0xDE, 0x0F, 0xC0, 0x01, 0xE6, 0x91, 0x0F, 0x1F, 0xCE, 0xC3, 
  0x06, 0xFF, 0x07, 0x7E, 0x9F, 0xC1, 0x01, 0xC6, 0xF3, 0x03, 0x0F, 0xC6, 
  0xCF, 0x07, 0xB8, 0x07, 0x3C, 0x9F, 0xE3, 0x01, 0xC6, 0xFF, 0x00, 0x00, 
  0x80, 0xC0, 0x07, 0x80, 0x07, 0x00, 0x1C, 0xFF, 0x00, 0x0E, 0x1F, 0x00, 
  0x00, 0x00, 0x00, 0x00, 0x80, 0x03, 0x00, 0x00, 0x18, 0x00, 0x1C, 0x00, 
  0x00, 0x00, 0x00, 0x00, 0x40, 0xC0, 0x03, 0x00, 0x00, 0x00, 0x00, 0x38, 
  0x00, 0x06, 0x00, 0x00, 0x00, 0xC0, 0xC0, 0x03, 0x00, 0x00, 0x00, 0x00, 
  0xF0, 0x80, 0x02, 0x00, 0x00, 0x00, 0x80, 0xE1, 0x01, 0x00, 0x00, 0x00, 
  0x00, 0xE0, 0xB7, 0x01, 0x00, 0x00, 0x00, 0x80, 0xFF, 0x01, 0x00, 0x00, 
  0x00, 0x00, 0x80, 0x37, 0x00, 0x00, 0x00, 0x00, 0x00, 0xFF, 0x00, 0x00, 
  0x00, 0x00, 0x00, 0x00, 0x00, 0x00, 0x00, 0x00, 0x00, 0x00, 0x7C, 0x00, 
  0x00, 0x00, 0x00, 0x00, };
